<svg xmlns="http://www.w3.org/2000/svg">
    <symbol id='logo' viewBox="0 0 264 42.3157">
        <title>Huddle</title>
    <path class="cls-1" d="M30.8059.7085C22.2947.7028,13.4163,2.621,4.45,5.1082A4.56,4.56,0,0,0,1.6144,7.0034,7.1975,7.1975,0,0,0,.7085,9.659c-.8712,4.8777-.7647,9.67-.5847,14.9745a7.55,7.55,0,0,0,.7878,3.5341,4.0452,4.0452,0,0,0,2.8227,1.63c1.56.2362,3.1107.4177,4.6646.58l-.3428,9.5856a2.0633,2.0633,0,0,0,.782,1.7612,2.4934,2.4934,0,0,0,1.3494.49,2.7,2.7,0,0,0,2.611-1.384,34.6981,34.6981,0,0,1,6.9587-9.8073,217.51,217.51,0,0,0,22.57-.8209A5.7466,5.7466,0,0,0,47.48,26.0794c1.4906-4.6631,1.7268-10.4179,1.8837-16.24a7.4048,7.4048,0,0,0-2.1486-5.7663,11.5115,11.5115,0,0,0-4.4717-1.89A57.403,57.403,0,0,0,30.8045.7085ZM42.147,4.3535a10.2658,10.2658,0,0,1,3.6436,1.4747c1.3911,1.4733,1.345,2.4583,1.3292,4.05C46.9614,15.52,46.6921,21,45.4147,25.152a3.7166,3.7166,0,0,1-3.3123,2.8125,211.2523,211.2523,0,0,1-22.8175.8152,1.14,1.14,0,0,0-.8382.3312A37.4671,37.4671,0,0,0,10.8183,39.778a.405.405,0,0,1-.3485.1915.1659.1659,0,0,1-.1527-.1627L10.66,29.409A1.1578,1.1578,0,0,0,9.659,28.2569q-2.796-.2691-5.5748-.6869c-.7993-.1181-1.0916-.337-1.3105-.6625A5.5587,5.5587,0,0,1,2.369,24.56a68.9638,68.9638,0,0,1,.5386-14.4345A6.5248,6.5248,0,0,1,3.51,8.18a2.6447,2.6447,0,0,1,1.8117-.9908C14.086,4.77,22.6605,2.96,30.7383,2.9537A55.4346,55.4346,0,0,1,42.147,4.3535ZM11.87,13.2708a3.8838,3.8838,0,0,0-.1584,4.7251,3.2283,3.2283,0,0,0,2.1731,1.3682,4.01,4.01,0,0,0,2.79-.9462,3.9234,3.9234,0,0,0,.5069-5.1917,3.1455,3.1455,0,0,0-2.4425-1.3624A3.6229,3.6229,0,0,0,11.87,13.2708ZM24.9316,12.09a3.6257,3.6257,0,0,0-2.7722,1.7714,3.7212,3.7212,0,0,0-.5242,3.5773c1.0585,2.4252,4.715,2.3964,6.1724-.072a3.4434,3.4434,0,0,0,0-3.3642,3.2966,3.2966,0,0,0-2.3518-1.8793A2.779,2.779,0,0,0,24.9316,12.09Zm10.6052.2247a4.17,4.17,0,0,0-1.12.1238,3.5183,3.5183,0,0,0-2.4915,3.7862,3.6985,3.6985,0,0,0,1.3336,2.5418,3.8112,3.8112,0,0,0,3.1726.6869A3.4131,3.4131,0,0,0,38.99,16.9446a3.5063,3.5063,0,0,0-.4551-3.1006A3.8236,3.8236,0,0,0,35.5368,12.3146ZM14.6419,14.1032a.7916.7916,0,0,1,.697.4047,1.8174,1.8174,0,0,1-.14,2.2106c-.49.4278-.7993.4681-1.0182.4393a1.0026,1.0026,0,0,1-.6308-.4551,1.6192,1.6192,0,0,1,1.0917-2.6Zm10.4467.2477a1.8548,1.8548,0,0,1,.7374.7028,1.1325,1.1325,0,0,1,.05,1.1709,1.3546,1.3546,0,0,1-2.1891.32,2.092,2.092,0,0,1,.3486-1.456c.3715-.5631.8324-.7719,1.0513-.7373Zm11.6392.8209a2.0063,2.0063,0,0,1,.1066,1.1925,1.0439,1.0439,0,0,1-.8612.8943,1.441,1.441,0,0,1-1.3163-.2247,1.5169,1.5169,0,0,1-.5055-1.0182c-.1008-1.0124.2635-1.2486.8439-1.4012A1.7337,1.7337,0,0,1,36.7278,15.1718ZM63.4725,5.2435a1.2851,1.2851,0,0,1,.3154-.7719.9577.9577,0,0,1,.7705-.3427H72.08a1.3036,1.3036,0,0,1,.7878.3154.9792.9792,0,0,1,.4032.7992v12.005H85.858V5.2435A1.1061,1.1061,0,0,1,86.9562,4.13q.0219,0,.0438.0006h7.4182a1.5538,1.5538,0,0,1,.8842.252.903.903,0,0,1,.3817.8094v35.43a1.0271,1.0271,0,0,1-.3313.8324,1.288,1.288,0,0,1-.8612.2808h-7.493a1.2167,1.2167,0,0,1-.8266-.2808,1.0538,1.0538,0,0,1-.3154-.8324V26.2378H73.2727V40.6219a1.0055,1.0055,0,0,1-.3428.8209,1.3552,1.3552,0,0,1-.9231.2923H64.5584c-.7085,0-1.0686-.3312-1.0859-.9893Zm69.285,36.06a1.5845,1.5845,0,0,1-.6985.3543,3.49,3.49,0,0,1-.697.0777h-3.825a1.7649,1.7649,0,0,1-.782-.1627,1.7221,1.7221,0,0,1-.5573-.4436,2.6487,2.6487,0,0,1-.3831-.6365,5.3393,5.3393,0,0,1-.2535-.7316l-.782-3.24a12.5548,12.5548,0,0,1-1.1017,1.7843,9.5743,9.5743,0,0,1-1.8347,1.8722,10.1911,10.1911,0,0,1-2.66,1.4689,9.76,9.76,0,0,1-3.5442.5963,11.9577,11.9577,0,0,1-9.26-4.152,14.007,14.007,0,0,1-2.5649-4.4932,16.313,16.313,0,0,1-.9116-5.4869V11.5268a2.1834,2.1834,0,0,1,.4177-1.4574,1.6308,1.6308,0,0,1,1.3263-.4954h5.8513a2.307,2.307,0,0,1,1.4963.3658,1.9281,1.9281,0,0,1,.4032,1.4344V27.858a4.5569,4.5569,0,0,0,.49,2.0637,6.1665,6.1665,0,0,0,3.1395,2.8975,5.3657,5.3657,0,0,0,2.0939.4321,4.6244,4.6244,0,0,0,1.8837-.4321,7.1236,7.1236,0,0,0,1.8-1.1477,6.3261,6.3261,0,0,0,1.3566-1.6994,4.2569,4.2569,0,0,0,.5285-2.0637V11.4476a2.4555,2.4555,0,0,1,.1628-.86,1.3867,1.3867,0,0,1,.4954-.6582,2.3906,2.3906,0,0,1,.6192-.2822,2.7257,2.7257,0,0,1,.674-.072h5.7217a2.0219,2.0219,0,0,1,1.57.5285,2.0523,2.0523,0,0,1,.4839,1.4228V39.863a1.8164,1.8164,0,0,1-.22.8828,1.5722,1.5722,0,0,1-.59.6351Zm29.3989-3.4938c-.4565.4551-.962.9447-1.5078,1.469a15.1666,15.1666,0,0,1-1.8117,1.4675,10.439,10.439,0,0,1-2.1271,1.13,6.7889,6.7889,0,0,1-2.4583.4392,15.3858,15.3858,0,0,1-6.3395-1.2889,15.1743,15.1743,0,0,1-4.99-3.5327,16.3525,16.3525,0,0,1-3.2691-5.2824,18.0035,18.0035,0,0,1-1.1752-6.531,17.9786,17.9786,0,0,1,1.1766-6.5483,16.3215,16.3215,0,0,1,3.2691-5.2651,14.9812,14.9812,0,0,1,4.9886-3.5212,15.5691,15.5691,0,0,1,6.3395-1.2774,7.6616,7.6616,0,0,1,2.5491.4047,9.3467,9.3467,0,0,1,2.0982,1.0355,11.6933,11.6933,0,0,1,1.75,1.4343c.5285.5286,1.0355,1.0513,1.5078,1.5583V1.9226a1.9929,1.9929,0,0,1,.49-1.3653A1.8861,1.8861,0,0,1,164.1294,0h5.7a1.9808,1.9808,0,0,1,.6912.1411,2.3856,2.3856,0,0,1,.6754.3932,1.9909,1.9909,0,0,1,.49.6077,1.5926,1.5926,0,0,1,.1915.782v37.86q0,1.9485-2.0479,1.9513H164.861a1.8829,1.8829,0,0,1-.7806-.13,1.1892,1.1892,0,0,1-.468-.3643,2.3636,2.3636,0,0,1-.3428-.6078c-.1008-.2419-.23-.5285-.3831-.85ZM147.5909,25.6805a9.1734,9.1734,0,0,0,.5242,3.128,7.4047,7.4047,0,0,0,1.479,2.52,6.9517,6.9517,0,0,0,2.3186,1.6821,7.055,7.055,0,0,0,2.997.6192,8.03,8.03,0,0,0,3.0545-.58,7.7361,7.7361,0,0,0,2.4914-1.6087,8.0851,8.0851,0,0,0,1.7109-2.4194,7.9792,7.9792,0,0,0,.72-2.9868v-.3543a8.0085,8.0085,0,0,0-.6063-3.0891,8.2254,8.2254,0,0,0-1.6821-2.5822,8.0005,8.0005,0,0,0-2.5317-1.76,7.6718,7.6718,0,0,0-3.1568-.6481,6.8486,6.8486,0,0,0-2.9984.6481,6.9526,6.9526,0,0,0-2.3172,1.7613,7.9158,7.9158,0,0,0-1.479,2.5807A9.1329,9.1329,0,0,0,147.5909,25.6805Zm53.6854,12.1288c-.4565.4551-.9563.9447-1.5078,1.469a14.7673,14.7673,0,0,1-1.806,1.4675,10.3609,10.3609,0,0,1-2.1314,1.13,6.7588,6.7588,0,0,1-2.4539.4392,15.4322,15.4322,0,0,1-6.3453-1.2889,15.21,15.21,0,0,1-4.9829-3.5327,16.2062,16.2062,0,0,1-3.2691-5.2824,17.855,17.855,0,0,1-1.1766-6.531,17.86,17.86,0,0,1,1.1766-6.5483,16.2717,16.2717,0,0,1,3.2691-5.2651,15.0168,15.0168,0,0,1,4.9829-3.5212,15.6159,15.6159,0,0,1,6.3453-1.2774,7.6227,7.6227,0,0,1,2.5432.4047,9.3916,9.3916,0,0,1,2.1027,1.0355,11.5871,11.5871,0,0,1,1.7454,1.4343c.5328.5286,1.0355,1.0513,1.5078,1.5583V1.9226A2.0033,2.0033,0,0,1,201.77.5573,1.8756,1.8756,0,0,1,203.2508,0h5.6986a2.0374,2.0374,0,0,1,.697.1411,2.4373,2.4373,0,0,1,.67.3932,2.0057,2.0057,0,0,1,.4954.6077,1.5927,1.5927,0,0,1,.1916.782v37.86c0,1.299-.687,1.9513-2.0537,1.9513h-4.9627a1.9177,1.9177,0,0,1-.7863-.13,1.2316,1.2316,0,0,1-.468-.3643,2.5416,2.5416,0,0,1-.3428-.6078c-.1008-.2419-.2247-.5285-.3773-.85Zm-14.56-12.1288a9.3116,9.3116,0,0,0,.5185,3.128,7.5094,7.5094,0,0,0,1.4833,2.52,7.0154,7.0154,0,0,0,2.3129,1.6821,7.1148,7.1148,0,0,0,3.0041.6192,7.9919,7.9919,0,0,0,3.05-.58,7.7183,7.7183,0,0,0,2.4972-1.6087,8.0865,8.0865,0,0,0,1.7094-2.4194,7.9811,7.9811,0,0,0,.72-2.9868v-.3543a8.1455,8.1455,0,0,0-2.2956-5.6713,7.8756,7.8756,0,0,0-2.53-1.76,7.6265,7.6265,0,0,0-3.151-.6481,6.8924,6.8924,0,0,0-3.0042.6481,6.9867,6.9867,0,0,0-2.3114,1.7613,8.0328,8.0328,0,0,0-1.4848,2.5807,9.2684,9.2684,0,0,0-.5184,3.0891ZM217.737,1.9514A2.265,2.265,0,0,1,218.14.5847a1.6153,1.6153,0,0,1,1.3969-.5559h6.2041a1.1343,1.1343,0,0,1,.5286.14,1.75,1.75,0,0,1,.5184.3888,2.0906,2.0906,0,0,1,.4032.6078,1.7915,1.7915,0,0,1,.17.7863V39.7837a1.8783,1.8783,0,0,1-.5458,1.4575,2.0089,2.0089,0,0,1-1.4056.4939h-5.8743a1.7093,1.7093,0,0,1-1.3941-.4939,2.2492,2.2492,0,0,1-.4061-1.4575Zm42.641,35.9371a16.8054,16.8054,0,0,1-5.0117,3.2,15.2545,15.2545,0,0,1-5.9016,1.1536,17.2295,17.2295,0,0,1-11.9777-4.7755,16.7861,16.7861,0,0,1-3.6953-5.2767,15.929,15.929,0,0,1-1.3682-6.61,16.8606,16.8606,0,0,1,4.5178-11.5888,15.5813,15.5813,0,0,1,11.4375-4.9224,14.9856,14.9856,0,0,1,4.0785.5574,15.8979,15.8979,0,0,1,6.8853,3.9992A16.352,16.352,0,0,1,261.824,16.73a15.0353,15.0353,0,0,1,1.6086,3.5946A13.7921,13.7921,0,0,1,264,24.2634c0,.877-.01,1.5913-.0389,2.1487a2.4258,2.4258,0,0,1-.3888,1.3335,1.91,1.91,0,0,1-1.1809.68,11.2936,11.2936,0,0,1-2.4195.1915H241.74a6.2959,6.2959,0,0,0,1.03,2.7118,6.3719,6.3719,0,0,0,1.7829,1.7325,7.098,7.098,0,0,0,2.1559.9217,9.0613,9.0613,0,0,0,2.1487.2822,9.4239,9.4239,0,0,0,1.8722-.1915,12.5833,12.5833,0,0,0,1.862-.5055,10.5549,10.5549,0,0,0,1.649-.7316,5.6739,5.6739,0,0,0,1.204-.8785,5.2872,5.2872,0,0,1,.6912-.49,1.2388,1.2388,0,0,1,.625-.1685,1.2074,1.2074,0,0,1,.67.23,5.1416,5.1416,0,0,1,.7705.66l2.683,3.0372a1.6379,1.6379,0,0,1,.3542.5963,1.9219,1.9219,0,0,1,.0792.5458,1.4067,1.4067,0,0,1-.2808.8713,3.3444,3.3444,0,0,1-.6581.648ZM248.1988,16.792a4.7984,4.7984,0,0,0-1.9125.3946,7.1486,7.1486,0,0,0-1.7339,1.0455,9.1707,9.1707,0,0,0-1.456,1.4978,9.3358,9.3358,0,0,0-1.0513,1.6979H254.989a15.2579,15.2579,0,0,0-1.1535-1.8232,8.0142,8.0142,0,0,0-1.4185-1.4733,6.1876,6.1876,0,0,0-1.8218-.9851,7.368,7.368,0,0,0-2.3964-.3542Z"/>
    </symbol>

    <symbol id="fb" viewBox="0 0 320 512">
        <title>Facebook</title>
        <path d="M279.14 288l14.22-92.66h-88.91v-60.13c0-25.35 12.42-50.06 52.24-50.06h40.42V6.26S260.43 0 225.36 0c-73.22 0-121.08 44.38-121.08 124.72v70.62H22.89V288h81.39v224h100.17V288z"/>
    </symbol>

    <symbol id="gh" viewBox="0 0 480 512">
        <title>Github</title>
        <path d="M186.1 328.7c0 20.9-10.9 55.1-36.7 55.1s-36.7-34.2-36.7-55.1 10.9-55.1 36.7-55.1 36.7 34.2 36.7 55.1zM480 278.2c0 31.9-3.2 65.7-17.5 95-37.9 76.6-142.1 74.8-216.7 74.8-75.8 0-186.2 2.7-225.6-74.8-14.6-29-20.2-63.1-20.2-95 0-41.9 13.9-81.5 41.5-113.6-5.2-15.8-7.7-32.4-7.7-48.8 0-21.5 4.9-32.3 14.6-51.8 45.3 0 74.3 9 108.8 36 29-6.9 58.8-10 88.7-10 27 0 54.2 2.9 80.4 9.2 34-26.7 63-35.2 107.8-35.2 9.8 19.5 14.6 30.3 14.6 51.8 0 16.4-2.6 32.7-7.7 48.2 27.5 32.4 39 72.3 39 114.2zm-64.3 50.5c0-43.9-26.7-82.6-73.5-82.6-18.9 0-37 3.4-56 6-14.9 2.3-29.8 3.2-45.1 3.2-15.2 0-30.1-.9-45.1-3.2-18.7-2.6-37-6-56-6-46.8 0-73.5 38.7-73.5 82.6 0 87.8 80.4 101.3 150.4 101.3h48.2c70.3 0 150.6-13.4 150.6-101.3zm-82.6-55.1c-25.8 0-36.7 34.2-36.7 55.1s10.9 55.1 36.7 55.1 36.7-34.2 36.7-55.1-10.9-55.1-36.7-55.1z"/>
    </symbol>

    <symbol id="ig" viewBox="0 0 448 512">
        <title>Instagram</title>
        <path d="M224.1 141c-63.6 0-114.9 51.3-114.9 114.9s51.3 114.9 114.9 114.9S339 319.5 339 255.9 287.7 141 224.1 141zm0 189.6c-41.1 0-74.7-33.5-74.7-74.7s33.5-74.7 74.7-74.7 74.7 33.5 74.7 74.7-33.6 74.7-74.7 74.7zm146.4-194.3c0 14.9-12 26.8-26.8 26.8-14.9 0-26.8-12-26.8-26.8s12-26.8 26.8-26.8 26.8 12 26.8 26.8zm76.1 27.2c-1.7-35.9-9.9-67.7-36.2-93.9-26.2-26.2-58-34.4-93.9-36.2-37-2.1-147.9-2.1-184.9 0-35.8 1.7-67.6 9.9-93.9 36.1s-34.4 58-36.2 93.9c-2.1 37-2.1 147.9 0 184.9 1.7 35.9 9.9 67.7 36.2 93.9s58 34.4 93.9 36.2c37 2.1 147.9 2.1 184.9 0 35.9-1.7 67.7-9.9 93.9-36.2 26.2-26.2 34.4-58 36.2-93.9 2.1-37 2.1-147.8 0-184.8zM398.8 388c-7.8 19.6-22.9 34.7-42.6 42.6-29.5 11.7-99.5 9-132.1 9s-102.7 2.6-132.1-9c-19.6-7.8-34.7-22.9-42.6-42.6-11.7-29.5-9-99.5-9-132.1s-2.6-102.7 9-132.1c7.8-19.6 22.9-34.7 42.6-42.6 29.5-11.7 99.5-9 132.1-9s102.7-2.6 132.1 9c19.6 7.8 34.7 22.9 42.6 42.6 11.7 29.5 9 99.5 9 132.1s2.7 102.7-9 132.1z"/>
    </symbol>

    <symbol id="in" viewBox="0 0 448 512">
        <title>Linked in</title>
        <path d="M100.28 448H7.4V148.9h92.88zM53.79 108.1C24.09 108.1 0 83.5 0 53.8a53.79 53.79 0 0 1 107.58 0c0 29.7-24.1 54.3-53.79 54.3zM447.9 448h-92.68V302.4c0-34.7-.7-79.2-48.29-79.2-48.29 0-55.69 37.7-55.69 76.7V448h-92.78V148.9h89.08v40.8h1.3c12.4-23.5 42.69-48.3 87.88-48.3 94 0 111.28 61.9 111.28 142.3V448z"/>
    </symbol>

    <clipPath id="spark">
        <path xmlns="http://www.w3.org/2000/svg" d="M198.948,185.703l-17.742-6.543c-14.364-5.297-25.687-16.619-30.983-30.982l-6.544-17.743   c-0.246-0.667-0.882-1.11-1.593-1.11c-0.711,0-1.347,0.443-1.593,1.11l-6.544,17.742c-5.297,14.364-16.62,25.686-30.983,30.983   l-17.743,6.543c-0.667,0.246-1.11,0.882-1.11,1.593c0,0.711,0.443,1.347,1.11,1.593l17.744,6.545   c14.363,5.297,25.685,16.619,30.982,30.982l6.544,17.744c0.246,0.667,0.882,1.11,1.593,1.11c0.711,0,1.347-0.443,1.593-1.11   l6.544-17.744c5.297-14.363,16.619-25.686,30.982-30.982l17.744-6.545c0.667-0.246,1.11-0.882,1.11-1.593   C200.059,186.585,199.615,185.949,198.948,185.703z"/>
    </clipPath>
</svg>
